{"asset":{"version":"2.0","generator":"Blockbench 4.12.4 glTF exporter"},"scenes":[{"nodes":[5],"name":"blockbench_export"}],"scene":0,"nodes":[{"translation":[0,0,-0.25],"name":"blade","mesh":0},{"translation":[0,0,0.140625],"name":"guard","mesh":1},{"translation":[0,0,0.40625],"name":"handle","mesh":2},{"translation":[0,0,0.40625],"name":"pommel","mesh":3},{"translation":[0,0,-0.0625],"name":"dagger","children":[0,1,2,3]},{"children":[4]}],"bufferViews":[{"buffer":0,"byteOffset":0,"byteLength":696,"target":34962,"byteStride":12},{"buffer":0,"byteOffset":696,"byteLength":696,"target":34962,"byteStride":12},{"buffer":0,"byteOffset":1392,"byteLength":464,"target":34962,"byteStride":8},{"buffer":0,"byteOffset":1856,"byteLength":156,"target":34963},{"buffer":0,"byteOffset":2012,"byteLength":528,"target":34962,"byteStride":12},{"buffer":0,"byteOffset":2540,"byteLength":528,"target":34962,"byteStride":12},{"buffer":0,"byteOffset":3068,"byteLength":352,"target":34962,"byteStride":8},{"buffer":0,"byteOffset":3420,"byteLength":120,"target":34963},{"buffer":0,"byteOffset":3540,"byteLength":264,"target":34962,"byteStride":12},{"buffer":0,"byteOffset":3804,"byteLength":264,"target":34962,"byteStride":12},{"buffer":0,"byteOffset":4068,"byteLength":176,"target":34962,"byteStride":8},{"buffer":0,"byteOffset":4244,"byteLength":60,"target":34963},{"buffer":0,"byteOffset":4304,"byteLength":336,"target":34962,"byteStride":12},{"buffer":0,"byteOffset":4640,"byteLength":336,"target":34962,"byteStride":12},{"buffer":0,"byteOffset":4976,"byteLength":224,"target":34962,"byteStride":8},{"buffer":0,"byteOffset":5200,"byteLength":72,"target":34963}],"buffers":[{"byteLength":5272,"uri":"data:application/octet-stream;base64,"}],"accessors":[{"bufferView":0,"componentType":5126,"count":58,"max":[0.125,0.015625,0.375],"min":[-0.125,-0.015625,-0.25],"type":"VEC3"},{"bufferView":1,"componentType":5126,"count":58,"max":[0.3152441680431366,1,0.15617376565933228],"min":[-0.3152441680431366,-1,-0.07881104201078415],"type":"VEC3"},{"bufferView":2,"componentType":5126,"count":58,"max":[0.2939809262752533,0.3148559331893921],"min":[0.01796874962747097,0.01406252384185791],"type":"VEC2"},{"bufferView":3,"componentType":5123,"count":78,"max":[57],"min":[0],"type":"SCALAR"},{"bufferView":4,"componentType":5126,"count":44,"max":[0.171875,0.015625,0.015625],"min":[-0.171875,-0.015625,-0.046875],"type":"VEC3"},{"bufferView":5,"componentType":5126,"count":44,"max":[0.4472135901451111,1,1],"min":[-0.4472135901451111,-1,-1],"type":"VEC3"},{"bufferView":6,"componentType":5126,"count":44,"max":[0.4018440544605255,0.4375],"min":[0.01875000074505806,0.3439890742301941],"type":"VEC2"},{"bufferView":7,"componentType":5123,"count":60,"max":[43],"min":[0],"type":"SCALAR"},{"bufferView":8,"componentType":5126,"count":22,"max":[0.046875,0.015625,0.03125],"min":[-0.046875,-0.015625,-0.25],"type":"VEC3"},{"bufferView":9,"componentType":5126,"count":22,"max":[0.44707563519477844,1,0.024837534874677658],"min":[-0.44707563519477844,-1,0],"type":"VEC3"},{"bufferView":10,"componentType":5126,"count":22,"max":[0.46778032183647156,0.2096174955368042],"min":[0.3296875059604645,0.02499997615814209],"type":"VEC2"},{"bufferView":11,"componentType":5123,"count":30,"max":[21],"min":[0],"type":"SCALAR"},{"bufferView":12,"componentType":5126,"count":28,"max":[0.046875,0.015625,0.15625],"min":[-0.046875,-0.015625,0.03125],"type":"VEC3"},{"bufferView":13,"componentType":5126,"count":28,"max":[0.31234753131866455,0.9370425939559937,0.15617376565933228],"min":[-0.4472135901451111,-0.9370425939559937,-0.15617376565933228],"type":"VEC3"},{"bufferView":14,"componentType":5126,"count":28,"max":[0.6396552920341492,0.2189924716949463],"min":[0.5015624761581421,0.015625],"type":"VEC2"},{"bufferView":15,"componentType":5123,"count":36,"max":[27],"min":[0],"type":"SCALAR"}],"materials":[{"pbrMetallicRoughness":{"metallicFactor":0,"roughnessFactor":1,"baseColorTexture":{"index":0}},"alphaMode":"MASK","alphaCutoff":0.05,"doubleSided":true}],"textures":[{"sampler":0,"source":0,"name":"dagger.png"}],"samplers":[{"magFilter":9728,"minFilter":9728,"wrapS":33071,"wrapT":33071}],"images":[{"mimeType":"image/png","uri":"data:image/png;base64,"}],"meshes":[{"primitives":[{"mode":4,"attributes":{"POSITION":0,"NORMAL":1,"TEXCOORD_0":2},"indices":3,"material":0}]},{"primitives":[{"mode":4,"attributes":{"POSITION":4,"NORMAL":5,"TEXCOORD_0":6},"indices":7,"material":0}]},{"primitives":[{"mode":4,"attributes":{"POSITION":8,"NORMAL":9,"TEXCOORD_0":10},"indices":11,"material":0}]},{"primitives":[{"mode":4,"attributes":{"POSITION":12,"NORMAL":13,"TEXCOORD_0":14},"indices":15,"material":0}]}]}